<svg width="8" height="8" viewBox="0 0 8 8" fill="none" xmlns="http://www.w3.org/2000/svg">
<g id="Icons">
<path id="Vector" fill-rule="evenodd" clip-rule="evenodd" d="M7.33464 3.99935C7.33464 4.36735 7.03597 4.66602 6.66797 4.66602H5.61063L6.35863 5.41335C6.61863 5.67402 6.61863 6.09602 6.35863 6.35669C6.09796 6.61669 5.67597 6.61669 5.4153 6.35669L4.66797 5.60868V6.66602C4.66797 7.03402 4.3693 7.33268 4.0013 7.33268C3.6333 7.33268 3.33463 7.03402 3.33463 6.66602V5.60868L2.5873 6.35669C2.32664 6.61669 1.90463 6.61669 1.64397 6.35669C1.38397 6.09602 1.38397 5.67402 1.64397 5.41335L2.39197 4.66602H1.33464C0.966639 4.66602 0.667969 4.36735 0.667969 3.99935C0.667969 3.63135 0.966639 3.33268 1.33464 3.33268H2.39197L1.64397 2.58535C1.38397 2.32468 1.38397 1.90268 1.64397 1.64201C1.90463 1.38201 2.32664 1.38201 2.5873 1.64201L3.33463 2.39001V1.33268C3.33463 0.964682 3.6333 0.666016 4.0013 0.666016C4.3693 0.666016 4.66797 0.964682 4.66797 1.33268V2.39001L5.4153 1.64201C5.67597 1.38201 6.09796 1.38201 6.35863 1.64201C6.61863 1.90268 6.61863 2.32468 6.35863 2.58535L5.61063 3.33268H6.66797C7.03597 3.33268 7.33464 3.63135 7.33464 3.99935Z" fill="#EC4A4A"/>
</g>
</svg>
